Coordinates
version=1
nRows=5
nColumns=42
inDegrees=yes

Units are S.I. units (second, meters, Newtons, ...)
If the header above contains a line with 'inDegrees', this indicates whether rotational values are in degrees (yes) or radians (no).

endheader
time	pelvis_tilt	pelvis_list	pelvis_rotation	pelvis_tx	pelvis_ty	pelvis_tz	hip_flexion_r	hip_adduction_r	hip_rotation_r	knee_angle_r	knee_adduction_r	knee_angle_r_beta	ankle_angle_r	subtalar_angle_r	mtp_angle_r	hip_flexion_l	hip_adduction_l	hip_rotation_l	knee_angle_l	knee_adduction_l	knee_angle_l_beta	ankle_angle_l	subtalar_angle_l	mtp_angle_l	lumbar_extension	lumbar_bending	lumbar_rotation	arm_flex_r	arm_add_r	arm_rot_r	elbow_flex_r	pro_sup_r	wrist_flex_r	wrist_dev_r	arm_flex_l	arm_add_l	arm_rot_l	elbow_flex_l	pro_sup_l	wrist_flex_l	wrist_dev_l
      1.75000000	     14.43718731	      4.91968812	      2.71295132	      0.21771521	      0.94203527	     -0.24083677	    -16.46204896	      4.20269427	    -17.14225818	      8.14921877	     -3.76231359	      0.14223070	     18.30288478	     12.51376255	     -7.53145480	      8.64576783	      4.32065999	     -9.27275358	     46.71630322	     -3.90994626	      0.81535331	     16.19675148	     -0.99694075	     -7.53145480	    -44.54139620	     -3.00194516	     -0.59836147	      6.51260212	    -10.83423457	      6.36853429	     40.25595375	     90.00000001	      0.00000000	      0.00000000	     -4.08175642	    -10.64941560	     12.30497807	     48.57878940	     90.00000001	      0.00000000	      0.00000000
      1.76000000	     14.23208493	      4.83593690	      2.88495265	      0.22299319	      0.94142825	     -0.24082899	    -16.96026489	      4.45860824	    -17.41045259	      7.43806489	     -3.78559812	      0.12981872	     18.32376240	     12.87687582	     -7.53098069	      9.51608994	      4.54772869	     -9.20275639	     44.92144104	     -3.96335920	      0.78402705	     15.88766068	     -0.45226434	     -7.53098069	    -44.39477534	     -2.91789376	     -0.59911485	      6.55806879	    -10.88360397	      6.43156646	     40.36810793	     90.00000001	      0.00000000	      0.00000000	     -4.13810091	    -10.58121751	     12.21364827	     48.49581681	     90.00000001	      0.00000000	      0.00000000
      1.77000000	     14.31132679	      4.91586289	      2.95181119	      0.22856676	      0.94148684	     -0.24092016	    -18.04403540	      4.38387807	    -17.49019059	      6.33346300	     -3.39595153	      0.11053978	     18.03770499	     13.68176355	     -7.53042078	      9.76036782	      4.96905764	     -9.32932365	     42.57907964	     -4.05099227	      0.74314513	     15.39091174	      0.46041393	     -7.53042078	    -44.56261458	     -3.00723337	     -0.63184966	      6.58295046	    -10.93332703	      6.53614391	     40.48916936	     90.00000001	      0.00000000	      0.00000000	     -4.18235317	    -10.47828228	     12.03970587	     48.51981292	     90.00000001	      0.00000000	      0.00000000
      1.78000000	     14.28147223	      4.92734786	      3.06789972	      0.23406297	      0.94115693	     -0.24101854	    -18.88258905	      4.45611587	    -17.65948384	      5.43751336	     -3.19707450	      0.09490251	     17.88709356	     14.23582201	     -7.52981337	     10.15783987	      5.33396101	     -9.59264289	     40.27814182	     -4.28734005	      0.70298619	     14.91361531	      1.38157329	     -7.52981337	    -44.60391384	     -3.02676721	     -0.65673979	      6.59427143	    -10.98864933	      6.65359490	     40.61918013	     90.00000001	      0.00000000	      0.00000000	     -4.24791394	    -10.40854420	     11.92859859	     48.53909338	     90.00000001	      0.00000000	      0.00000000
      1.79000000	     14.12217774	      4.83061746	      3.30524939	      0.23940977	      0.94041566	     -0.24130401	    -19.49693826	      4.74892595	    -17.86221522	      4.63021212	     -3.19618630	      0.08081245	     17.86071301	     14.66113209	     -7.52941737	     10.75585567	      5.61631049	     -9.78959395	     38.07141165	     -4.58490781	      0.66447148	     14.46549343	      2.11901168	     -7.52941737	    -44.50892636	     -2.88256033	     -0.71996758	      6.62933335	    -11.02075161	      6.74999264	     40.71673283	     90.00000001	      0.00000000	      0.00000000	     -4.30714253	    -10.35323473	     11.87604256	     48.47361218	     90.00000001	      0.00000000	      0.00000000
